<?xml version="1.0" ?><!DOCTYPE svg  PUBLIC '-//W3C//DTD SVG 1.1//EN'  'http://www.w3.org/Graphics/SVG/1.1/DTD/svg11.dtd'><svg enable-background="new 0 0 80 79.999" height="79.999px" id="Layer_1" version="1.1" viewBox="0 0 80 79.999" width="80px" xml:space="preserve" xmlns="http://www.w3.org/2000/svg" xmlns:xlink="http://www.w3.org/1999/xlink"><path d="M79.24,26.228c0-4.963-4.038-9-9-9c-4.963,0-9,4.037-9,9c0,1.829,0.551,3.53,1.492,4.952l-4.473,5.701  c0.825,1.571,0.164,0.313,3.051,5.819l5.93-7.553v25.29C50.773,29.1,68.256,62.376,46.845,21.595C48.186,20.023,49,17.989,49,15.767  c0-4.963-4.038-9-9-9c-4.963,0-9,4.037-9,9c0,2.223,0.814,4.256,2.154,5.828c-7.266,13.837-17.422,33.18-20.395,38.843V35.167  l5.912,7.551l3.058-5.823l-4.468-5.708c0.944-1.423,1.498-3.128,1.498-4.96c0-4.963-4.038-9-9-9c-4.963,0-9,4.037-9,9  c0,3.91,2.51,7.235,6,8.475v38.531h6.055L24.76,50.487l15.199,19.42l15.271-19.45l11.954,22.775h6.057v-38.53  C76.729,33.463,79.24,30.138,79.24,26.228z M9.76,23.227c1.654,0,3,1.346,3,3s-1.346,3-3,3s-3-1.346-3-3S8.105,23.227,9.76,23.227z   M40,12.767c1.654,0,3,1.346,3,3s-1.346,3-3,3s-3-1.346-3-3S38.346,12.767,40,12.767z M39.97,60.188l-12.15-15.521l10.526-20.06  c0.537,0.101,1.088,0.159,1.654,0.159c0.564,0,1.117-0.059,1.653-0.159l10.517,20.03L39.97,60.188z M70.24,29.228  c-1.654,0-3-1.346-3-3s1.346-3,3-3s3,1.346,3,3S71.895,29.228,70.24,29.228z" fill="#333F4F"/></svg>